<?xml version="1.0" encoding="UTF-8"?>
<svg id="_레이어_2" data-name="레이어 2" xmlns="http://www.w3.org/2000/svg" viewBox="0 0 118.75 115.65">
  <defs>
    <style>
      .cls-1 {
        fill: #e55c31;
      }

      .cls-2 {
        fill: #7bc4bb;
      }
    </style>
  </defs>
  <g id="_레이어_1-2" data-name="레이어 1">
    <g>
      <polygon class="cls-2" points="22.15 21.98 23.51 25.41 23.46 21.98 23.46 .44 29.25 .44 29.25 31.27 21.17 31.27 9.2 9.73 7.84 6.3 7.89 9.73 7.89 31.27 2.09 31.27 2.09 .44 10.17 .44 22.15 21.98"/>
      <polygon class="cls-2" points="60.5 31.27 36.65 31.27 36.65 .44 60.5 .44 60.5 4.63 42.73 4.63 42.73 12.44 59.28 12.44 59.28 16.59 42.73 16.59 42.73 27.08 60.5 27.08 60.5 31.27"/>
      <path class="cls-2" d="M86.1,7.46c-1.27-1.01-2.65-1.8-4.16-2.37-1.51-.57-3.16-.86-4.94-.86-3.99,0-5.99,1.18-5.99,3.55,0,1.17.45,2.1,1.34,2.78.89.68,2.12,1.28,3.67,1.82l3.36,1.19c2.95,1.07,5.23,2.31,6.84,3.75,1.61,1.43,2.41,3.19,2.41,5.26,0,1.54-.33,2.89-.97,4.03-.65,1.14-1.57,2.09-2.75,2.83-1.19.75-2.6,1.3-4.23,1.66-1.64.36-3.45.54-5.43.54-2.14,0-4.12-.23-5.94-.68-1.82-.45-3.44-1.2-4.87-2.23v-5.18c0-.16.08-.27.24-.34.16-.07.31-.05.44.06.68.64,1.38,1.21,2.09,1.72.71.5,1.48.93,2.29,1.28.81.35,1.7.61,2.65.8.96.19,2,.28,3.14.28,2.4,0,4.13-.37,5.18-1.1,1.06-.73,1.58-1.86,1.58-3.37,0-1.17-.49-2.15-1.46-2.93-.97-.78-2.39-1.51-4.24-2.17l-3.36-1.2c-1.2-.42-2.31-.9-3.33-1.43-1.02-.53-1.9-1.14-2.63-1.82-.73-.68-1.31-1.46-1.73-2.33-.42-.88-.63-1.9-.63-3.07,0-1.3.29-2.44.87-3.43.58-.98,1.41-1.8,2.48-2.45,1.07-.65,2.35-1.15,3.85-1.5,1.49-.35,3.13-.52,4.91-.52.78,0,1.61.04,2.48.12.88.08,1.75.21,2.63.4.87.19,1.73.44,2.55.78.83.33,1.6.75,2.31,1.25v4.63c0,.16-.08.27-.24.34-.16.07-.31.05-.44-.06"/>
      <polygon class="cls-2" points="106.73 31.27 100.65 31.27 100.65 4.63 88.68 4.63 88.68 .44 118.75 .44 118.75 4.63 106.73 4.63 106.73 31.27"/>
      <polygon class="cls-1" points="19.81 67.1 19.81 70.5 1.74 70.5 1.74 45.46 6.72 45.46 6.72 67.1 19.81 67.1"/>
      <rect class="cls-1" x="22.53" y="45.46" width="4.98" height="25.04"/>
      <polygon class="cls-1" points="42.18 65.55 42.89 63.28 49.77 45.46 54.95 45.46 44.83 70.5 39.57 70.5 29.45 45.46 34.63 45.46 41.51 63.28 42.18 65.55"/>
      <rect class="cls-1" x="57.4" y="45.46" width="4.98" height="25.04"/>
      <polygon class="cls-1" points="83.93 62.96 85.04 65.74 84.99 62.96 84.99 45.46 89.7 45.46 89.7 70.5 83.14 70.5 73.41 53.01 72.3 50.22 72.34 53.01 72.34 70.5 67.64 70.5 67.64 45.46 74.2 45.46 83.93 62.96"/>
      <path class="cls-1" d="M118,51.49c-1.19-1.06-2.51-1.83-3.97-2.32-1.46-.49-3.04-.73-4.72-.73-1.45,0-2.79.21-4.01.63-1.23.42-2.29,1.03-3.2,1.83-.91.8-1.62,1.78-2.14,2.95-.51,1.17-.77,2.51-.77,4.02,0,3.09.84,5.46,2.51,7.12,1.67,1.67,4.23,2.5,7.65,2.5,1.19,0,2.11-.1,2.77-.31.66-.2,1.21-.49,1.66-.86v-5.67h-6.64v-3.4h11.62v11.24c-1.66.82-3.31,1.41-4.94,1.77-1.63.36-3.32.53-5.06.53-2.4,0-4.51-.3-6.33-.92-1.82-.61-3.34-1.48-4.57-2.61-1.22-1.12-2.15-2.48-2.79-4.07-.63-1.59-.95-3.35-.95-5.3s.37-3.71,1.12-5.28c.75-1.58,1.79-2.92,3.11-4.02,1.32-1.1,2.88-1.95,4.7-2.54,1.82-.6,3.79-.89,5.93-.89,1.82,0,3.53.18,5.14.55,1.61.37,3.08.96,4.43,1.78v3.76c0,.13-.07.23-.2.29-.13.06-.25.04-.36-.07"/>
      <path class="cls-2" d="M28.42,106.9c.13-.13.27-.16.44-.08.16.08.24.2.24.36v5.07c-1.69,1.2-3.55,2.06-5.58,2.6-2.03.53-4.22.8-6.56.8-2.66,0-5.05-.37-7.14-1.1-2.1-.73-3.88-1.78-5.34-3.16-1.46-1.37-2.58-3.03-3.34-4.97-.76-1.95-1.14-4.13-1.14-6.55s.45-4.7,1.34-6.65c.89-1.96,2.12-3.62,3.68-4.97,1.56-1.36,3.41-2.4,5.56-3.12,2.14-.72,4.47-1.08,6.97-1.08s4.5.21,6.29.62c1.79.41,3.45,1.18,4.97,2.3v5.03c0,.16-.08.28-.24.36-.16.08-.31.06-.44-.08-1.56-1.44-3.17-2.47-4.83-3.1-1.66-.62-3.46-.94-5.41-.94-1.66,0-3.18.25-4.58.74-1.4.5-2.61,1.22-3.63,2.18-1.02.96-1.83,2.15-2.41,3.57-.58,1.43-.88,3.08-.88,4.97,0,3.94.96,6.87,2.88,8.79,1.92,1.92,4.73,2.88,8.43,2.88,2.05,0,3.97-.39,5.75-1.18,1.79-.79,3.44-1.88,4.97-3.3"/>
      <path class="cls-2" d="M48.85,84.41l12.58,30.88h-6.14l-3.32-8.47h-12.82l-3.36,8.47h-6.14l12.53-30.88h6.68ZM45.53,88.92l-.98,2.96-4.19,10.95h10.34l-4.19-10.95-.97-2.96Z"/>
      <path class="cls-2" d="M82,102.34v.08l9.26,12.86h-7.51l-7.36-11.99h-5.12v11.99h-6.14v-30.88h10.87c2.18,0,4.1.23,5.78.68,1.67.45,3.08,1.08,4.22,1.88,1.14.8,2.01,1.76,2.61,2.88.6,1.12.9,2.33.9,3.63,0,1.22-.19,2.32-.56,3.28-.37.96-.9,1.81-1.58,2.54-.68.73-1.48,1.34-2.39,1.84-.91.49-1.9.9-2.97,1.22M83.26,93.59c0-1.68-.62-2.94-1.85-3.78-1.24-.84-2.8-1.26-4.68-1.26h-5.51v10.75h4.24c1.33,0,2.49-.09,3.46-.26.98-.17,1.79-.48,2.44-.92.65-.44,1.13-1.03,1.44-1.76.31-.73.46-1.66.46-2.78"/>
      <polygon class="cls-2" points="118.75 115.29 94.87 115.29 94.87 84.41 118.75 84.41 118.75 88.6 100.96 88.6 100.96 96.43 117.53 96.43 117.53 100.59 100.96 100.59 100.96 111.09 118.75 111.09 118.75 115.29"/>
    </g>
  </g>
</svg>